<svg width="3189" height="896" viewBox="0 0 3189 896" fill="none" xmlns="http://www.w3.org/2000/svg">
<g clip-path="url(#clip0_6_54)">
<path d="M2790.69 -529.483L1563.94 703.847C1544.02 723.804 1544.02 751.743 1563.94 771.7L1874.61 1083.03C1882.57 1091.01 1894.52 1095 1906.47 1095H3137.2C3165.09 1095 3185 1075.04 3185 1047.1V-182.235C3185 -194.209 3181.02 -206.183 3173.05 -214.166L2862.38 -525.492C2838.48 -545.449 2810.6 -545.449 2790.69 -529.483ZM3061.53 -174.252L2874.33 13.3416V-353.863C2874.33 -365.837 2886.28 -369.829 2894.24 -361.846L3061.53 -194.209C3065.51 -186.226 3065.51 -178.244 3061.53 -174.252ZM1727.24 671.916L2758.82 -361.846C2766.79 -369.829 2778.74 -365.837 2778.74 -353.863V105.143L2197.23 691.873H1739.19C1727.24 691.873 1723.25 675.907 1727.24 671.916ZM2778.74 240.849V667.925C2778.74 679.899 2766.79 691.873 2754.84 691.873H2328.66L2778.74 240.849ZM1914.44 975.259C1910.45 979.251 1902.49 979.251 1898.5 975.259L1731.22 807.622C1723.25 799.639 1727.24 787.665 1739.19 787.665H2105.62L1914.44 975.259ZM2993.82 1003.2H2045.87C2033.93 1003.2 2029.94 991.225 2037.91 983.242L2233.07 787.665H2794.67C2802.64 787.665 2806.62 791.657 2810.6 795.648L3001.78 987.233C3009.75 987.233 3005.77 1003.2 2993.82 1003.2ZM3089.41 907.406C3089.41 919.38 3077.46 923.372 3069.49 915.389L2878.31 723.804C2874.33 719.812 2870.35 711.829 2870.35 707.838V145.057L3065.51 -50.5201C3073.48 -58.5028 3085.43 -54.5115 3085.43 -42.5374V907.406H3089.41Z" fill="#5A92F4" fill-opacity="0.2"/>
<mask id="mask0_6_54" style="mask-type:alpha" maskUnits="userSpaceOnUse" x="1204" y="348" width="781" height="200">
<g clip-path="url(#clip1_6_54)">
<path d="M1359.54 349.463L1209.36 500.195C1206.93 502.634 1206.93 506.049 1209.36 508.488L1247.39 546.537C1248.37 547.512 1249.83 548 1251.29 548H1401.95C1405.37 548 1407.81 545.561 1407.81 542.146V391.902C1407.81 390.439 1407.32 388.976 1406.34 388L1368.31 349.951C1365.39 347.512 1361.97 347.512 1359.54 349.463ZM1392.69 392.878L1369.77 415.805V370.927C1369.77 369.463 1371.24 368.976 1372.21 369.951L1392.69 390.439C1393.18 391.415 1393.18 392.39 1392.69 392.878ZM1229.35 496.293L1355.63 369.951C1356.61 368.976 1358.07 369.463 1358.07 370.927V427.024L1286.89 498.732H1230.82C1229.35 498.732 1228.87 496.781 1229.35 496.293ZM1358.07 443.61V495.805C1358.07 497.268 1356.61 498.732 1355.15 498.732H1302.98L1358.07 443.61ZM1252.27 533.366C1251.78 533.854 1250.81 533.854 1250.32 533.366L1229.84 512.878C1228.87 511.902 1229.35 510.439 1230.82 510.439H1275.67L1252.27 533.366ZM1384.4 536.781H1268.36C1266.9 536.781 1266.41 535.317 1267.38 534.341L1291.28 510.439H1360.02C1361 510.439 1361.49 510.927 1361.97 511.415L1385.38 534.829C1386.35 534.829 1385.86 536.781 1384.4 536.781ZM1396.1 525.073C1396.1 526.537 1394.64 527.024 1393.67 526.049L1370.26 502.634C1369.77 502.146 1369.29 501.171 1369.29 500.683V431.902L1393.18 408C1394.15 407.024 1395.62 407.512 1395.62 408.976V525.073H1396.1ZM1504.83 462.146C1510.68 458.244 1513.61 452.878 1513.61 445.561C1513.61 440.195 1511.66 435.805 1508.25 431.902C1503.86 427.512 1496.54 425.073 1487.77 425.073H1451.2V503.61H1488.74C1507.76 503.61 1518.48 495.805 1518.48 481.659C1518 471.902 1514.1 466.049 1504.83 462.146ZM1483.87 455.317H1469.24V441.171H1484.84C1488.74 441.171 1495.08 442.146 1495.08 448.488C1495.08 453.366 1491.18 455.317 1483.87 455.317ZM1469.24 471.415H1487.77C1495.57 471.415 1499.47 473.854 1499.47 478.732C1499.47 483.61 1495.57 486.049 1488.74 486.049H1469.73V471.415H1469.24ZM1525.8 446.049H1544.33V503.122H1525.8V446.049ZM1525.8 424.585H1544.33V441.171H1525.8V424.585ZM1597.47 448.488C1593.57 444.585 1588.21 441.171 1579.43 441.171C1566.27 441.171 1552.61 450.927 1552.61 469.463C1552.61 488 1566.27 497.756 1579.43 497.756C1586.74 497.756 1592.11 495.317 1597.47 489.951V490.439C1597.47 500.683 1592.11 505.561 1581.87 505.561C1575.04 505.561 1569.19 504.098 1562.37 500.195L1561.39 499.707L1555.05 513.854L1556.03 514.341C1563.83 518.244 1572.61 520.683 1582.36 520.683C1594.55 520.683 1602.83 518.244 1608.2 512.39C1613.07 507.024 1616 499.22 1616 488.488V442.146H1597.47V448.488ZM1584.31 482.634C1576.51 482.634 1571.14 477.268 1571.14 469.951C1571.14 462.634 1576.51 457.268 1584.31 457.268C1592.11 457.268 1597.47 462.634 1597.47 469.951C1597.47 477.268 1592.11 482.634 1584.31 482.634ZM1657.93 424.585H1627.21V503.122H1657.93C1681.82 503.122 1699.37 486.537 1699.37 463.61C1699.37 441.171 1681.82 424.585 1657.93 424.585ZM1645.74 441.659H1657.93C1671.09 441.659 1679.87 450.439 1679.87 464.098C1679.87 477.268 1671.09 486.049 1657.93 486.049H1645.74V441.659ZM1734.97 441.659C1717.9 441.659 1705.22 455.317 1705.22 473.366C1705.22 491.415 1718.39 504.585 1736.92 504.585C1747.16 504.585 1755.44 500.683 1761.78 493.366L1762.27 492.878L1751.54 483.122L1751.06 483.61C1746.67 487.512 1742.77 489.463 1737.4 489.463C1730.58 489.463 1726.19 486.049 1724.24 479.707H1764.71V474.341C1764.22 459.22 1756.42 441.659 1734.97 441.659ZM1734.97 456.781C1740.82 456.781 1744.72 460.683 1746.18 467.512H1723.75C1724.73 460.683 1729.12 456.781 1734.97 456.781ZM1798.84 465.561L1796.89 465.073C1792.01 463.61 1787.62 461.659 1787.62 459.22C1787.62 457.268 1789.58 456.293 1792.99 456.293C1796.89 456.293 1802.74 458.244 1808.1 461.659L1809.08 462.146L1816.39 448.976L1815.42 448.488C1809.08 444.098 1800.79 441.659 1792.99 441.659C1779.82 441.659 1770.56 449.463 1770.56 461.171C1770.56 472.878 1779.82 477.268 1788.6 479.707L1791.04 480.195C1795.91 481.659 1800.3 483.122 1800.3 485.561C1800.3 488.488 1796.89 488.976 1794.45 488.976C1789.09 488.976 1782.75 486.537 1776.41 482.146L1775.44 481.659L1767.15 494.341L1767.63 494.829C1774.95 500.683 1784.21 504.098 1793.48 504.098C1808.1 504.098 1816.88 496.781 1816.88 484.098C1817.37 471.902 1805.18 468 1798.84 465.561ZM1824.68 424.585H1843.21V441.171H1824.68V424.585ZM1824.68 446.049H1843.21V503.122H1824.68V446.049ZM1897.82 448.488C1893.92 444.585 1888.55 441.171 1879.78 441.171C1866.61 441.171 1852.96 450.927 1852.96 469.463C1852.96 488 1866.61 497.756 1879.78 497.756C1887.09 497.756 1892.45 495.317 1897.82 489.951V490.439C1897.82 500.683 1892.45 505.561 1882.21 505.561C1875.39 505.561 1869.54 504.098 1862.71 500.195L1861.74 499.707L1855.4 513.854L1856.37 514.341C1864.17 518.244 1872.95 520.683 1882.7 520.683C1894.89 520.683 1903.18 518.244 1908.54 512.39C1913.42 507.024 1916.34 499.22 1916.34 488.488V442.146H1897.82V448.488ZM1884.65 482.634C1876.85 482.634 1871.49 477.268 1871.49 469.951C1871.49 462.634 1876.85 457.268 1884.65 457.268C1892.45 457.268 1897.82 462.634 1897.82 469.951C1897.82 477.268 1892.45 482.634 1884.65 482.634ZM1959.74 441.659C1951.94 441.659 1947.06 445.561 1943.65 449.463V443.122H1925.12V503.61H1943.65V469.951C1943.65 463.122 1947.06 459.22 1952.91 459.22C1960.23 459.22 1962.18 465.073 1962.18 469.951V503.61H1980.7V464.585C1980.7 449.951 1972.9 441.659 1959.74 441.659Z" fill="#313440"/>
</g>
</mask>
<g mask="url(#mask0_6_54)">
<path d="M1959.48 567.883H1204.07C1181.35 567.883 1163.06 558.265 1163.06 546.312V356.706C1163.06 344.752 1181.35 335.135 1204.07 335.135H1959.48C1982.2 335.135 2000.49 344.752 2000.49 356.706V546.175C2000.75 558.265 1982.2 567.883 1959.48 567.883Z" fill="url(#paint0_linear_6_54)"/>
</g>
</g>
<defs>
<linearGradient id="paint0_linear_6_54" x1="1974.76" y1="498.292" x2="1582.15" y2="118.41" gradientUnits="userSpaceOnUse">
<stop stop-color="#80BCFF"/>
<stop offset="1" stop-color="#1756DE"/>
</linearGradient>
<clipPath id="clip0_6_54">
<rect width="3189" height="896" fill="white"/>
</clipPath>
<clipPath id="clip1_6_54">
<rect width="780.117" height="200" fill="white" transform="translate(1204 348)"/>
</clipPath>
</defs>
</svg>
