<svg version="1.2" baseProfile="tiny" xmlns="http://www.w3.org/2000/svg" viewBox="0 0 160 41"><path d="M31.9.3L1.1 31.2c-.5.5-.5 1.2 0 1.7l7.8 7.8c.2.2.5.3.8.3h30.9c.7 0 1.2-.5 1.2-1.2V9c0-.3-.1-.6-.3-.8L33.7.4c-.6-.5-1.3-.5-1.8-.1zm6.8 8.9L34 13.9V4.7c0-.3.3-.4.5-.2l4.2 4.2c.1.2.1.4 0 .5zM5.2 30.4L31.1 4.5c.2-.2.5-.1.5.2v11.5L17 30.9H5.5c-.3 0-.4-.4-.3-.5zm26.4-10.8v10.7c0 .3-.3.6-.6.6H20.3l11.3-11.3zM9.9 38c-.1.1-.3.1-.4 0l-4.2-4.2c-.2-.2-.1-.5.2-.5h9.2L9.9 38zm27.1.7H13.2c-.3 0-.4-.3-.2-.5l4.9-4.9H32c.2 0 .3.1.4.2l4.8 4.8c.2 0 .1.4-.2.4zm2.4-2.4c0 .3-.3.4-.5.2l-4.8-4.8c-.1-.1-.2-.3-.2-.4V17.2l4.9-4.9c.2-.2.5-.1.5.2v23.8zm22.3-12.9c1.2-.8 1.8-1.9 1.8-3.4 0-1.1-.4-2-1.1-2.8-.9-.9-2.4-1.4-4.2-1.4h-7.5v16.1h7.7c3.9 0 6.1-1.6 6.1-4.5-.1-2-.9-3.2-2.8-4zM57.4 22h-3v-2.9h3.2c.8 0 2.1.2 2.1 1.5 0 1-.8 1.4-2.3 1.4zm-3 3.3h3.8c1.6 0 2.4.5 2.4 1.5s-.8 1.5-2.2 1.5h-3.9v-3zM66 20.1h3.8v11.7H66zm0-4.4h3.8v3.4H66zm14.7 4.9c-.8-.8-1.9-1.5-3.7-1.5-2.7 0-5.5 2-5.5 5.8s2.8 5.8 5.5 5.8c1.5 0 2.6-.5 3.7-1.6v.1c0 2.1-1.1 3.1-3.2 3.1-1.4 0-2.6-.3-4-1.1l-.2-.1L72 34l.2.1c1.6.8 3.4 1.3 5.4 1.3 2.5 0 4.2-.5 5.3-1.7 1-1.1 1.6-2.7 1.6-4.9v-9.5h-3.8v1.3zm-2.7 7c-1.6 0-2.7-1.1-2.7-2.6s1.1-2.6 2.7-2.6 2.7 1.1 2.7 2.6-1.1 2.6-2.7 2.6zm15.1-11.9h-6.3v16.1h6.3c4.9 0 8.5-3.4 8.5-8.1 0-4.6-3.6-8-8.5-8zm-2.5 3.5h2.5c2.7 0 4.5 1.8 4.5 4.6 0 2.7-1.8 4.5-4.5 4.5h-2.5v-9.1zm18.3 0c-3.5 0-6.1 2.8-6.1 6.5s2.7 6.4 6.5 6.4c2.1 0 3.8-.8 5.1-2.3l.1-.1-2.2-2-.1.1c-.9.8-1.7 1.2-2.8 1.2-1.4 0-2.3-.7-2.7-2h8.3v-1.1c-.1-3.1-1.7-6.7-6.1-6.7zm0 3.1c1.2 0 2 .8 2.3 2.2h-4.6c.2-1.4 1.1-2.2 2.3-2.2zm13.1 1.8l-.4-.1c-1-.3-1.9-.7-1.9-1.2 0-.4.4-.6 1.1-.6.8 0 2 .4 3.1 1.1l.2.1 1.5-2.7-.2-.1c-1.3-.9-3-1.4-4.6-1.4-2.7 0-4.6 1.6-4.6 4s1.9 3.3 3.7 3.8l.5.1c1 .3 1.9.6 1.9 1.1 0 .6-.7.7-1.2.7-1.1 0-2.4-.5-3.7-1.4l-.2-.1-1.7 2.6.1.1c1.5 1.2 3.4 1.9 5.3 1.9 3 0 4.8-1.5 4.8-4.1.1-2.5-2.4-3.3-3.7-3.8zm5.3-8.4h3.8v3.4h-3.8zm0 4.4h3.8v11.7h-3.8zm15 .5c-.8-.8-1.9-1.5-3.7-1.5-2.7 0-5.5 2-5.5 5.8s2.8 5.8 5.5 5.8c1.5 0 2.6-.5 3.7-1.6v.1c0 2.1-1.1 3.1-3.2 3.1-1.4 0-2.6-.3-4-1.1l-.2-.1-1.3 2.9.2.1c1.6.8 3.4 1.3 5.4 1.3 2.5 0 4.2-.5 5.3-1.7 1-1.1 1.6-2.7 1.6-4.9v-9.5h-3.8v1.3zm-2.7 7c-1.6 0-2.7-1.1-2.7-2.6s1.1-2.6 2.7-2.6 2.7 1.1 2.7 2.6-1.1 2.6-2.7 2.6zm15.4-8.4c-1.6 0-2.6.8-3.3 1.6v-1.3h-3.8v12.4h3.8V25c0-1.4.7-2.2 1.9-2.2 1.5 0 1.9 1.2 1.9 2.2v6.9h3.8v-8c0-3-1.6-4.7-4.3-4.7z"/></svg>
