<svg xmlns="http://www.w3.org/2000/svg" viewBox="0 0 60 60"><path d="M15.6 55c.1 0 .1 0 0 0h37.9c.8 0 1.4-.6 1.4-1.4v-38c0-.1 0-.1-.1-.2v-.1c0-.1-.1-.1-.1-.2l-.2-.2v-.1l-9.4-9.4s-.1-.1-.2-.1l-.1-.1c-.1 0-.1-.1-.2-.1s-.2-.1-.3-.1h-.6c-.1 0-.2.1-.3.1h-.1c-.1.1-.2.1-.3.2L5.4 43.1c-.1.1-.1.2-.2.3v.1c-.1.1-.2.2-.2.3v.4c0 .1 0 .3.1.4 0 .1.1.1.1.2v.1c0 .1.1.1.1.2l.1.1 9.4 9.4.2.2c.1 0 .1.1.2.1h.1c.2 0 .2 0 .3.1zm30.5-44.5l5.2 5.2c.1.1.1.4 0 .5L45.5 22V10.8c0-.4.4-.5.6-.3zM45.5 26l6-6c.2-.2.6-.1.6.3v29c0 .3-.4.5-.6.3l-5.8-5.8c-.1-.1-.2-.3-.2-.5V26zm-1.8 19.7l5.8 5.8c.2.2.1.6-.3.6h-29c-.3 0-.5-.4-.3-.6l6-6h17.2c.3 0 .5.1.6.2zm-14.8-3.1l13.8-13.8v13c0 .4-.3.7-.7.7H28.9zm13.7-31.8v14.1L24.8 42.6h-14c-.3 0-.5-.4-.3-.6L42 10.5c.2-.2.6-.1.6.3zM10.8 45.5H22l-5.8 5.8c-.1.1-.4.1-.5 0l-5.2-5.2c-.2-.2-.1-.6.3-.6z" fill="#121118"/></svg>
