<svg width="24" height="24" viewBox="0 0 24 24" fill="none" xmlns="http://www.w3.org/2000/svg">
<g clip-path="url(#clip0_3269_129509)">
<path d="M13.667 5.33268V9.49935C13.667 10.4327 13.9753 11.2993 14.5003 11.9993H9.50033C10.042 11.2827 10.3337 10.416 10.3337 9.49935V5.33268H13.667ZM16.167 3.66602H7.83366C7.37533 3.66602 7.00033 4.04102 7.00033 4.49935C7.00033 4.95768 7.37533 5.33268 7.83366 5.33268H8.66699V9.49935C8.66699 10.8827 7.55033 11.9993 6.16699 11.9993V13.666H11.142V19.4993L11.9753 20.3327L12.8087 19.4993V13.666H17.8337V11.9993C16.4503 11.9993 15.3337 10.8827 15.3337 9.49935V5.33268H16.167C16.6253 5.33268 17.0003 4.95768 17.0003 4.49935C17.0003 4.04102 16.6253 3.66602 16.167 3.66602Z" fill="none"/>
</g>
<defs>
<clipPath id="clip0_3269_129509">
<rect width="24" height="24" fill="none"/>
</clipPath>
</defs>
</svg>
