<svg xmlns="http://www.w3.org/2000/svg" width="24" height="24" viewBox="0 0 24 24"><path fill="none" d="M0 0h24v24H0V0z"/><path d="m11.636 10.182-1.818-4-1.818 4L4 12l4 1.818 1.818 4 1.818-4 4-1.818zm-.643 3.013-1.175 2.462-1.145-2.462L6.163 12l2.51-1.145 1.145-2.512 1.175 2.512L13.475 12zM18 6l-.91-2-.908 2-2 .91 2 .908.909 2 .909-2 2-.909zm-.66 1.169-.25.549-.234-.55-.577-.236.577-.258.235-.573.25.573.558.235zM18 16.182l-.91-2-.908 2-2 .909 2 .909.909 2L18 18l2-.91zm-.66 1.169-.25.549-.234-.55-.577-.236.577-.258.235-.573.25.573.558.235z"/></svg>
