<svg width="16" height="16" viewBox="0 0 16 16" fill="currentColor" xmlns="http://www.w3.org/2000/svg">
<path d="M16 8C16 6.41775 15.5308 4.87103 14.6518 3.55544C13.7727 2.23984 12.5233 1.21446 11.0615 0.608964C9.59966 0.00346267 7.99113 -0.154964 6.43928 0.153718C4.88743 0.4624 3.46197 1.22433 2.34315 2.34315C1.22433 3.46197 0.4624 4.88743 0.153718 6.43928C-0.154964 7.99113 0.00346269 9.59966 0.608964 11.0615C1.21446 12.5233 2.23985 13.7727 3.55544 14.6518C4.87103 15.5308 6.41775 16 8 16V13.7091C6.87085 13.7091 5.76706 13.3743 4.8282 12.7469C3.88935 12.1196 3.1576 11.228 2.72549 10.1848C2.29338 9.14157 2.18032 7.99367 2.40061 6.88621C2.6209 5.77876 3.16463 4.7615 3.96307 3.96307C4.7615 3.16463 5.77876 2.6209 6.88621 2.40061C7.99367 2.18032 9.14157 2.29338 10.1848 2.72549C11.228 3.1576 12.1196 3.88935 12.7469 4.8282C13.3743 5.76706 13.7091 6.87085 13.7091 8H16Z" fill="currentColor"/>
</svg>
