<svg width="169" height="41" xmlns="http://www.w3.org/2000/svg"><g fill="#121118" fill-rule="evenodd"><path d="M8.497 40.08c.08 0 .08 0 0 0h30.38c.642 0 1.123-.48 1.123-1.122V8.497c0-.08 0-.08-.08-.16v-.08c0-.08-.08-.08-.08-.16l-.16-.161v-.08L32.143.32s-.08-.08-.16-.08l-.08-.08c-.08 0-.08-.08-.16-.08s-.16-.08-.241-.08h-.48c-.08 0-.16.08-.24.08h-.08c-.08.08-.16.08-.241.16L.32 30.541c-.08.08-.08.16-.16.24v.08c-.08.08-.161.161-.161.241v.32c0 .081 0 .241.08.321 0 .08.08.08.08.16v.081c0 .08.08.08.08.16l.08.08 7.536 7.536.16.16c.08 0 .08.08.16.08h.08c.16 0 .16 0 .241.08zM32.946 4.41l4.168 4.168c.08.08.08.32 0 .401l-4.65 4.65V4.648c0-.32.322-.4.482-.24zm-.481 12.425l4.81-4.81c.16-.16.48-.08.48.24v23.247c0 .24-.32.4-.48.24l-4.65-4.649a.612.612 0 01-.16-.4v-13.87zm-1.443 15.791l4.65 4.65c.16.16.08.48-.241.48H12.184c-.24 0-.4-.32-.24-.48l4.81-4.81H30.54c.24 0 .4.08.481.16zM19.158 30.14L30.22 19.078V29.5c0 .32-.24.561-.56.561H19.157v.08zM30.14 4.65v11.302L15.872 30.14H4.649c-.24 0-.4-.32-.24-.48l25.25-25.251c.16-.16.481-.08.481.24zM4.65 32.464h8.977l-4.649 4.65c-.08.08-.32.08-.4 0l-4.17-4.17c-.16-.16-.08-.48.241-.48z" fill-rule="nonzero"/><path d="M60.182 30V12.806h5.495c.894 0 1.713.075 2.458.224.745.149 1.393.385 1.945.71.552.324.982.758 1.288 1.301.307.543.46 1.21.46 1.998 0 .824-.21 1.586-.63 2.287a3.25 3.25 0 01-1.762 1.446v.105c.947.21 1.73.653 2.353 1.328.622.675.933 1.59.933 2.747 0 .86-.166 1.604-.5 2.235a4.503 4.503 0 01-1.38 1.577c-.586.421-1.283.732-2.09.934-.806.201-1.682.302-2.628.302h-5.942zm3.05-10.095h2.182c1.21 0 2.081-.22 2.616-.658.534-.438.801-1.025.801-1.761 0-.841-.28-1.437-.84-1.788-.562-.35-1.403-.526-2.525-.526h-2.234v4.733zm0 7.729h2.576c1.262 0 2.235-.232 2.918-.697.684-.464 1.026-1.178 1.026-2.142 0-.912-.333-1.573-1-1.985-.665-.412-1.647-.618-2.944-.618h-2.576v5.442zM75.614 30V17.092h3.024V30h-3.024zm1.525-15.17c-.543 0-.99-.157-1.34-.473-.351-.315-.526-.727-.526-1.235 0-.508.175-.925.525-1.249.35-.324.798-.486 1.341-.486.543 0 .99.162 1.34.486.351.324.527.74.527 1.249 0 .508-.176.92-.526 1.235-.35.316-.798.474-1.34.474zm9.859 20.875c-.771 0-1.486-.07-2.143-.21-.657-.14-1.222-.35-1.695-.631a3.31 3.31 0 01-1.118-1.052c-.271-.42-.407-.911-.407-1.472 0-.544.157-1.047.473-1.512.315-.464.771-.88 1.367-1.249v-.105a2.62 2.62 0 01-.828-.841c-.22-.35-.329-.789-.329-1.315 0-.508.145-.968.434-1.38.29-.412.618-.75.986-1.012v-.105c-.438-.333-.828-.793-1.17-1.38-.342-.588-.513-1.267-.513-2.038 0-.736.14-1.393.421-1.972a4.411 4.411 0 011.117-1.459 4.769 4.769 0 011.617-.894 6.193 6.193 0 011.946-.302c.35 0 .688.03 1.012.092.324.061.618.136.88.224h4.628v2.234h-2.367c.21.246.386.557.526.934.14.376.21.793.21 1.248 0 .719-.127 1.35-.38 1.893-.255.544-.6 1-1.04 1.367a4.568 4.568 0 01-1.55.842 6.2 6.2 0 01-1.92.289 4.95 4.95 0 01-.867-.08 4.314 4.314 0 01-.894-.262 2.71 2.71 0 00-.46.526c-.114.175-.17.412-.17.71 0 .368.153.657.46.867.306.21.854.316 1.642.316h2.288c1.56 0 2.738.25 3.536.749.797.5 1.196 1.31 1.196 2.432 0 .63-.162 1.227-.487 1.787-.324.561-.784 1.043-1.38 1.446-.596.404-1.319.723-2.169.96-.85.237-1.8.355-2.852.355zm.158-11.7a2.13 2.13 0 001.577-.67c.438-.446.657-1.09.657-1.932 0-.806-.214-1.433-.644-1.88-.43-.446-.96-.67-1.59-.67-.631 0-1.166.22-1.604.657-.438.438-.657 1.07-.657 1.893 0 .841.219 1.486.657 1.932.438.447.973.67 1.604.67zm.315 9.728c1.052 0 1.897-.206 2.537-.618.64-.412.96-.898.96-1.459 0-.508-.198-.85-.592-1.025-.394-.175-.96-.263-1.696-.263h-1.76c-.701 0-1.288-.061-1.761-.184-.666.508-1 1.078-1 1.709 0 .578.294 1.03.881 1.354.587.324 1.398.486 2.432.486zM96.436 30V12.806h4.6c2.63 0 4.68.71 6.153 2.13 1.472 1.42 2.208 3.549 2.208 6.388 0 1.42-.188 2.673-.565 3.76-.377 1.086-.92 1.993-1.63 2.72a6.806 6.806 0 01-2.577 1.644c-1.007.368-2.151.552-3.43.552h-4.759zm3.05-2.471h1.34c1.753 0 3.098-.504 4.036-1.512.938-1.008 1.406-2.572 1.406-4.693 0-2.103-.473-3.636-1.42-4.6-.946-.964-2.286-1.446-4.022-1.446h-1.34v12.25zm18.64 2.786a6.696 6.696 0 01-2.498-.46 5.93 5.93 0 01-2.025-1.327 6.063 6.063 0 01-1.354-2.117c-.324-.832-.486-1.783-.486-2.852 0-1.052.167-1.998.5-2.84.333-.84.775-1.55 1.327-2.129a5.882 5.882 0 011.906-1.34 5.442 5.442 0 012.209-.474c.876 0 1.647.15 2.313.447a4.514 4.514 0 011.67 1.262c.446.543.784 1.192 1.012 1.945a8.51 8.51 0 01.341 2.472c0 .298-.013.578-.039.841a5.605 5.605 0 01-.092.63h-8.202c.14 1.158.547 2.047 1.222 2.67.675.622 1.538.933 2.59.933a4.76 4.76 0 001.564-.25c.482-.167.96-.399 1.433-.697l1.025 1.893a9.283 9.283 0 01-2.05 1 7.132 7.132 0 01-2.367.393zm-3.445-7.992h5.731c0-.999-.214-1.783-.644-2.353-.43-.57-1.09-.854-1.985-.854-.77 0-1.445.272-2.024.815-.578.543-.938 1.34-1.078 2.392zm14.854 7.992c-.894 0-1.774-.17-2.642-.512-.868-.342-1.617-.767-2.248-1.275l1.42-1.946c.578.456 1.152.81 1.722 1.065.57.254 1.187.381 1.853.381.701 0 1.218-.144 1.551-.434.333-.289.5-.661.5-1.117a1.1 1.1 0 00-.237-.697 2.273 2.273 0 00-.63-.538 6.065 6.065 0 00-.895-.434 47.822 47.822 0 01-.999-.408c-.42-.158-.85-.342-1.288-.552a5.179 5.179 0 01-1.17-.762 3.846 3.846 0 01-.841-1.039c-.22-.394-.329-.863-.329-1.406 0-1.14.421-2.068 1.262-2.787.842-.719 1.99-1.078 3.444-1.078.894 0 1.7.158 2.419.473.719.316 1.34.675 1.867 1.078l-1.394 1.84a7.21 7.21 0 00-1.38-.801 3.627 3.627 0 00-1.46-.303c-.648 0-1.125.136-1.432.408-.307.272-.46.609-.46 1.012 0 .263.074.486.223.67.15.184.347.347.592.487s.53.271.854.394c.325.123.662.246 1.013.368.438.158.876.338 1.314.54.438.2.837.45 1.196.748.36.298.649.662.868 1.091.219.43.328.942.328 1.538 0 .561-.11 1.083-.328 1.565a3.64 3.64 0 01-.96 1.262c-.42.359-.946.644-1.577.854-.631.21-1.35.315-2.156.315zm7.73-.315V17.092h3.023V30h-3.024zm1.524-15.17c-.543 0-.99-.157-1.34-.473-.351-.315-.526-.727-.526-1.235 0-.508.175-.925.525-1.249.35-.324.798-.486 1.341-.486.543 0 .99.162 1.341.486.35.324.526.74.526 1.249 0 .508-.176.92-.526 1.235-.35.316-.798.474-1.34.474zm9.859 20.875c-.771 0-1.485-.07-2.143-.21-.657-.14-1.222-.35-1.695-.631a3.31 3.31 0 01-1.118-1.052c-.271-.42-.407-.911-.407-1.472 0-.544.157-1.047.473-1.512.315-.464.771-.88 1.367-1.249v-.105a2.62 2.62 0 01-.828-.841c-.22-.35-.329-.789-.329-1.315 0-.508.145-.968.434-1.38.29-.412.618-.75.986-1.012v-.105c-.438-.333-.828-.793-1.17-1.38-.342-.588-.513-1.267-.513-2.038 0-.736.14-1.393.421-1.972a4.411 4.411 0 011.117-1.459 4.769 4.769 0 011.617-.894 6.193 6.193 0 011.946-.302c.35 0 .688.03 1.012.092.324.061.618.136.88.224h4.628v2.234h-2.367c.21.246.386.557.526.934.14.376.21.793.21 1.248 0 .719-.126 1.35-.38 1.893-.255.544-.6 1-1.04 1.367a4.568 4.568 0 01-1.55.842 6.2 6.2 0 01-1.92.289 4.95 4.95 0 01-.867-.08 4.314 4.314 0 01-.894-.262 2.71 2.71 0 00-.46.526c-.114.175-.17.412-.17.71 0 .368.153.657.46.867.306.21.854.316 1.642.316h2.288c1.56 0 2.738.25 3.536.749.797.5 1.196 1.31 1.196 2.432 0 .63-.162 1.227-.486 1.787-.325.561-.785 1.043-1.38 1.446-.597.404-1.32.723-2.17.96-.85.237-1.8.355-2.852.355zm.158-11.7a2.13 2.13 0 001.577-.67c.438-.446.657-1.09.657-1.932 0-.806-.214-1.433-.644-1.88-.43-.446-.96-.67-1.59-.67-.631 0-1.166.22-1.604.657-.438.438-.657 1.07-.657 1.893 0 .841.219 1.486.657 1.932.438.447.973.67 1.604.67zm.315 9.728c1.052 0 1.897-.206 2.537-.618.64-.412.96-.898.96-1.459 0-.508-.197-.85-.592-1.025-.394-.175-.96-.263-1.696-.263h-1.761c-.701 0-1.288-.061-1.761-.184-.666.508-1 1.078-1 1.709 0 .578.294 1.03.881 1.354.587.324 1.398.486 2.432.486zM157.823 30V17.092h2.498l.21 1.735h.105a10.234 10.234 0 011.88-1.446c.675-.403 1.459-.605 2.353-.605 1.384 0 2.392.443 3.023 1.328.631.885.947 2.151.947 3.799V30h-3.024v-7.703c0-1.07-.157-1.823-.473-2.26-.315-.44-.832-.658-1.551-.658-.56 0-1.056.136-1.485.407-.43.272-.916.67-1.46 1.197V30h-3.023z"/></g></svg>
