<?xml version="1.0" encoding="utf-8"?>
<!-- Generator: Adobe Illustrator 23.0.6, SVG Export Plug-In . SVG Version: 6.00 Build 0)  -->
<svg version="1.2" baseProfile="tiny" id="Layer_1" xmlns="http://www.w3.org/2000/svg" xmlns:xlink="http://www.w3.org/1999/xlink"
	 x="0px" y="0px" viewBox="0 0 160 41" xml:space="preserve">
<g>
	<path d="M31.9,0.3L1.1,31.2c-0.5,0.5-0.5,1.2,0,1.7l7.8,7.8C9.1,40.9,9.4,41,9.7,41h30.9c0.7,0,1.2-0.5,1.2-1.2V9
		c0-0.3-0.1-0.6-0.3-0.8l-7.8-7.8C33.1-0.1,32.4-0.1,31.9,0.3z M38.7,9.2l-4.7,4.7V4.7c0-0.3,0.3-0.4,0.5-0.2l4.2,4.2
		C38.8,8.9,38.8,9.1,38.7,9.2z M5.2,30.4L31.1,4.5c0.2-0.2,0.5-0.1,0.5,0.2v11.5L17,30.9H5.5C5.2,30.9,5.1,30.5,5.2,30.4z
		 M31.6,19.6v10.7c0,0.3-0.3,0.6-0.6,0.6H20.3L31.6,19.6z M9.9,38c-0.1,0.1-0.3,0.1-0.4,0l-4.2-4.2c-0.2-0.2-0.1-0.5,0.2-0.5h9.2
		L9.9,38z M37,38.7H13.2c-0.3,0-0.4-0.3-0.2-0.5l4.9-4.9H32c0.2,0,0.3,0.1,0.4,0.2l4.8,4.8C37.4,38.3,37.3,38.7,37,38.7z M39.4,36.3
		c0,0.3-0.3,0.4-0.5,0.2l-4.8-4.8c-0.1-0.1-0.2-0.3-0.2-0.4V17.2l4.9-4.9c0.2-0.2,0.5-0.1,0.5,0.2V36.3z"/>
	<g>
		<path d="M61.7,23.4c1.2-0.8,1.8-1.9,1.8-3.4c0-1.1-0.4-2-1.1-2.8c-0.9-0.9-2.4-1.4-4.2-1.4h-7.5v16.1h7.7c3.9,0,6.1-1.6,6.1-4.5
			C64.4,25.4,63.6,24.2,61.7,23.4z M57.4,22h-3v-2.9h3.2c0.8,0,2.1,0.2,2.1,1.5C59.7,21.6,58.9,22,57.4,22z M54.4,25.3h3.8
			c1.6,0,2.4,0.5,2.4,1.5c0,1-0.8,1.5-2.2,1.5h-3.9V25.3z"/>
		<rect x="66" y="20.1" width="3.8" height="11.7"/>
		<rect x="66" y="15.7" width="3.8" height="3.4"/>
		<path d="M80.7,20.6c-0.8-0.8-1.9-1.5-3.7-1.5c-2.7,0-5.5,2-5.5,5.8c0,3.8,2.8,5.8,5.5,5.8c1.5,0,2.6-0.5,3.7-1.6v0.1
			c0,2.1-1.1,3.1-3.2,3.1c-1.4,0-2.6-0.3-4-1.1l-0.2-0.1L72,34l0.2,0.1c1.6,0.8,3.4,1.3,5.4,1.3c2.5,0,4.2-0.5,5.3-1.7
			c1-1.1,1.6-2.7,1.6-4.9v-9.5h-3.8V20.6z M78,27.6c-1.6,0-2.7-1.1-2.7-2.6c0-1.5,1.1-2.6,2.7-2.6c1.6,0,2.7,1.1,2.7,2.6
			C80.7,26.5,79.6,27.6,78,27.6z"/>
		<path d="M93.1,15.7h-6.3v16.1h6.3c4.9,0,8.5-3.4,8.5-8.1C101.6,19.1,98,15.7,93.1,15.7z M90.6,19.2h2.5c2.7,0,4.5,1.8,4.5,4.6
			c0,2.7-1.8,4.5-4.5,4.5h-2.5V19.2z"/>
		<path d="M108.9,19.2c-3.5,0-6.1,2.8-6.1,6.5c0,3.7,2.7,6.4,6.5,6.4c2.1,0,3.8-0.8,5.1-2.3l0.1-0.1l-2.2-2l-0.1,0.1
			c-0.9,0.8-1.7,1.2-2.8,1.2c-1.4,0-2.3-0.7-2.7-2h8.3l0-0.2c0-0.3,0-0.6,0-0.9C114.9,22.8,113.3,19.2,108.9,19.2z M108.9,22.3
			c1.2,0,2,0.8,2.3,2.2h-4.6C106.8,23.1,107.7,22.3,108.9,22.3z"/>
		<path d="M122,24.1l-0.4-0.1c-1-0.3-1.9-0.7-1.9-1.2c0-0.4,0.4-0.6,1.1-0.6c0.8,0,2,0.4,3.1,1.1l0.2,0.1l1.5-2.7l-0.2-0.1
			c-1.3-0.9-3-1.4-4.6-1.4c-2.7,0-4.6,1.6-4.6,4c0,2.4,1.9,3.3,3.7,3.8l0.5,0.1c1,0.3,1.9,0.6,1.9,1.1c0,0.6-0.7,0.7-1.2,0.7
			c-1.1,0-2.4-0.5-3.7-1.4l-0.2-0.1l-1.7,2.6l0.1,0.1c1.5,1.2,3.4,1.9,5.3,1.9c3,0,4.8-1.5,4.8-4.1C125.8,25.4,123.3,24.6,122,24.1z
			"/>
		<rect x="127.3" y="15.7" width="3.8" height="3.4"/>
		<rect x="127.3" y="20.1" width="3.8" height="11.7"/>
		<path d="M142.3,20.6c-0.8-0.8-1.9-1.5-3.7-1.5c-2.7,0-5.5,2-5.5,5.8c0,3.8,2.8,5.8,5.5,5.8c1.5,0,2.6-0.5,3.7-1.6v0.1
			c0,2.1-1.1,3.1-3.2,3.1c-1.4,0-2.6-0.3-4-1.1l-0.2-0.1l-1.3,2.9l0.2,0.1c1.6,0.8,3.4,1.3,5.4,1.3c2.5,0,4.2-0.5,5.3-1.7
			c1-1.1,1.6-2.7,1.6-4.9v-9.5h-3.8V20.6z M139.6,27.6c-1.6,0-2.7-1.1-2.7-2.6c0-1.5,1.1-2.6,2.7-2.6c1.6,0,2.7,1.1,2.7,2.6
			C142.3,26.5,141.2,27.6,139.6,27.6z"/>
		<path d="M155,19.2c-1.6,0-2.6,0.8-3.3,1.6v-1.3h-3.8v12.4h3.8v-6.9c0-1.4,0.7-2.2,1.9-2.2c1.5,0,1.9,1.2,1.9,2.2v6.9h3.8v-8
			C159.3,20.9,157.7,19.2,155,19.2z"/>
	</g>
</g>
</svg>
