<?xml version="1.0" encoding="UTF-8"?>
<svg width="169px" height="41px" viewBox="0 0 169 41" version="1.1" xmlns="http://www.w3.org/2000/svg" xmlns:xlink="http://www.w3.org/1999/xlink">
    <!-- Generator: Sketch 51.2 (57519) - http://www.bohemiancoding.com/sketch -->
    <title>Group</title>
    <desc>Created with Sketch.</desc>
    <defs>
      <style type="text/css">
        @import url('https://fonts.googleapis.com/css?family=Source+Sans+Pro:600');
      </style>
    </defs>
    <g id="Page-1" stroke="none" stroke-width="1" fill="none" fill-rule="evenodd">
        <g id="Group">
            <path d="M8.49699399,40.0801603 C8.57715431,40.0801603 8.57715431,40.0801603 8.49699399,40.0801603 C8.57715431,40.0801603 8.65731463,40.0801603 8.73747495,40.0801603 L38.8777555,40.0801603 C39.5190381,40.0801603 40,39.5991984 40,38.9579158 L40,8.73747495 C40,8.65731463 40,8.57715431 40,8.57715431 L40,8.49699399 C40,8.41683367 40,8.41683367 39.9198397,8.33667335 C39.9198397,8.33667335 39.9198397,8.25651303 39.9198397,8.25651303 C39.9198397,8.17635271 39.8396794,8.17635271 39.8396794,8.09619238 C39.8396794,8.09619238 39.759519,8.01603206 39.6793587,7.93587174 L39.6793587,7.85571142 L32.1442886,0.320641283 C32.1442886,0.320641283 32.1442886,0.320641283 32.1442886,0.320641283 C32.1442886,0.320641283 32.0641283,0.240480962 31.9839679,0.240480962 L31.9038076,0.160320641 C31.8236473,0.160320641 31.8236473,0.0801603206 31.743487,0.0801603206 C31.6633267,0.0801603206 31.5831663,0 31.503006,0 C31.503006,0 31.4228457,0 31.4228457,0 C31.3426854,0 31.1823647,0 31.1022044,0 L31.0220441,0 C30.9418838,0 30.8617234,0.0801603206 30.7815631,0.0801603206 C30.7815631,0.0801603206 30.7014028,0.0801603206 30.7014028,0.0801603206 C30.6212425,0.160320641 30.5410822,0.160320641 30.4609218,0.240480962 L0.320641283,30.5410822 C0.240480962,30.6212425 0.240480962,30.7014028 0.160320641,30.7815631 C0.160320641,30.7815631 0.160320641,30.8617234 0.160320641,30.8617234 C0.0801603206,30.9418838 0,31.0220441 0,31.1022044 C0,31.1823647 0,31.2625251 0,31.3426854 C0,31.3426854 0,31.4228457 0,31.4228457 C0,31.503006 0,31.6633267 0.0801603206,31.743487 C0.0801603206,31.8236473 0.160320641,31.8236473 0.160320641,31.9038076 L0.160320641,31.9839679 C0.160320641,32.0641283 0.240480962,32.0641283 0.240480962,32.1442886 L0.320641283,32.2244489 L7.85571142,39.759519 C7.85571142,39.759519 7.85571142,39.759519 7.85571142,39.759519 C7.93587174,39.8396794 7.93587174,39.8396794 8.01603206,39.9198397 C8.01603206,39.9198397 8.01603206,39.9198397 8.01603206,39.9198397 C8.09619238,39.9198397 8.09619238,40 8.17635271,40 C8.17635271,40 8.17635271,40 8.25651303,40 C8.41683367,40 8.41683367,40 8.49699399,40.0801603 Z M32.9458918,4.40881764 L37.1142285,8.57715431 C37.1943888,8.65731463 37.1943888,8.89779559 37.1142285,8.97795591 L32.4649299,13.6272545 L32.4649299,4.6492986 C32.4649299,4.32865731 32.7855711,4.24849699 32.9458918,4.40881764 Z M32.4649299,16.8336673 L37.2745491,12.0240481 C37.4348697,11.8637275 37.755511,11.9438878 37.755511,12.2645291 L37.755511,35.511022 C37.755511,35.751503 37.4348697,35.9118236 37.2745491,35.751503 L32.6252505,31.1022044 C32.5450902,31.0220441 32.4649299,30.8617234 32.4649299,30.7014028 L32.4649299,16.8336673 Z M31.0220441,32.6252505 L35.6713427,37.2745491 C35.8316633,37.4348697 35.751503,37.755511 35.4308617,37.755511 L12.1843687,37.755511 C11.9438878,37.755511 11.7835671,37.4348697 11.9438878,37.2745491 L16.753507,32.4649299 L30.5410822,32.4649299 C30.7815631,32.4649299 30.9418838,32.5450902 31.0220441,32.6252505 Z M19.1583166,30.1402806 L30.2204409,19.0781563 L30.2204409,29.498998 C30.2204409,29.8196393 29.9799599,30.0601202 29.6593186,30.0601202 L19.1583166,30.0601202 L19.1583166,30.1402806 Z M30.1402806,4.6492986 L30.1402806,15.9519038 L15.8717435,30.1402806 L4.6492986,30.1402806 C4.40881764,30.1402806 4.24849699,29.8196393 4.40881764,29.6593186 L29.6593186,4.40881764 C29.8196393,4.24849699 30.1402806,4.32865731 30.1402806,4.6492986 Z M4.6492986,32.4649299 L13.6272545,32.4649299 L8.97795591,37.1142285 C8.89779559,37.1943888 8.65731463,37.1943888 8.57715431,37.1142285 L4.40881764,32.9458918 C4.24849699,32.7855711 4.32865731,32.4649299 4.6492986,32.4649299 Z" id="Shape" fill="#121118" fill-rule="nonzero"></path>
            <text id="BigDesign" font-family="Source Sans Pro" font-size="26.29" font-weight="600" fill="#000000">
                <tspan x="58" y="30">BigDesign</tspan>
            </text>
        </g>
    </g>
</svg>
