<svg version="1.1" id="Layer_1" xmlns="http://www.w3.org/2000/svg" xmlns:xlink="http://www.w3.org/1999/xlink" x="0px" y="0px" viewBox="0 0 60 60" style="enable-background:new 0 0 60 60;" xml:space="preserve">
<style type="text/css">
	.st0{fill:#121118;}
</style>
<g>
	<path class="st0" d="M15.6,55C15.7,55,15.7,55,15.6,55c0.1,0,0.2,0,0.3,0h37.6c0.8,0,1.4-0.6,1.4-1.4V15.9c0-0.1,0-0.2,0-0.2l0-0.1
		c0-0.1,0-0.1-0.1-0.2c0,0,0-0.1,0-0.1c0-0.1-0.1-0.1-0.1-0.2l0,0c0,0-0.1-0.1-0.2-0.2l0-0.1l-9.4-9.4c0,0,0,0,0,0
		c0,0-0.1-0.1-0.2-0.1l-0.1-0.1c-0.1,0-0.1-0.1-0.2-0.1l0,0c-0.1,0-0.2-0.1-0.3-0.1c0,0-0.1,0-0.1,0c-0.1,0-0.3,0-0.4,0l-0.1,0
		c-0.1,0-0.2,0.1-0.3,0.1c0,0-0.1,0-0.1,0c-0.1,0.1-0.2,0.1-0.3,0.2L5.4,43.1c-0.1,0.1-0.1,0.2-0.2,0.3c0,0,0,0.1,0,0.1
		C5.1,43.6,5,43.7,5,43.8l0,0c0,0.1,0,0.2,0,0.3c0,0,0,0.1,0,0.1c0,0.1,0,0.3,0.1,0.4l0,0c0,0.1,0.1,0.1,0.1,0.2l0,0.1
		c0,0.1,0.1,0.1,0.1,0.2l0.1,0.1l9.4,9.4c0,0,0,0,0,0c0.1,0.1,0.1,0.1,0.2,0.2c0,0,0,0,0,0c0.1,0,0.1,0.1,0.2,0.1c0,0,0,0,0.1,0
		C15.5,54.9,15.5,54.9,15.6,55L15.6,55z M46.1,10.5l5.2,5.2c0.1,0.1,0.1,0.4,0,0.5L45.5,22V10.8C45.5,10.4,45.9,10.3,46.1,10.5z
		 M45.5,26l6-6c0.2-0.2,0.6-0.1,0.6,0.3v29c0,0.3-0.4,0.5-0.6,0.3l-5.8-5.8c-0.1-0.1-0.2-0.3-0.2-0.5V26z M43.7,45.7l5.8,5.8
		c0.2,0.2,0.1,0.6-0.3,0.6h-29c-0.3,0-0.5-0.4-0.3-0.6l6-6h17.2C43.4,45.5,43.6,45.6,43.7,45.7z M28.9,42.6l13.8-13.8v13
		c0,0.4-0.3,0.7-0.7,0.7H28.9z M42.6,10.8v14.1L24.8,42.6H10.8c-0.3,0-0.5-0.4-0.3-0.6L42,10.5C42.2,10.3,42.6,10.4,42.6,10.8z
		 M10.8,45.5H22l-5.8,5.8c-0.1,0.1-0.4,0.1-0.5,0l-5.2-5.2C10.3,45.9,10.4,45.5,10.8,45.5z"></path>
</g>
</svg>
