<svg width="20" height="20" viewBox="0 0 20 20" fill="none" xmlns="http://www.w3.org/2000/svg">
<path d="M18 10C18 8.41775 17.5308 6.87103 16.6518 5.55544C15.7727 4.23984 14.5233 3.21446 13.0615 2.60896C11.5997 2.00346 9.99113 1.84504 8.43928 2.15372C6.88743 2.4624 5.46197 3.22433 4.34315 4.34315C3.22433 5.46197 2.4624 6.88743 2.15372 8.43928C1.84504 9.99113 2.00346 11.5997 2.60896 13.0615C3.21446 14.5233 4.23985 15.7727 5.55544 16.6518C6.87103 17.5308 8.41775 18 10 18V15.7091C8.87085 15.7091 7.76706 15.3743 6.8282 14.7469C5.88935 14.1196 5.1576 13.228 4.72549 12.1848C4.29338 11.1416 4.18032 9.99367 4.40061 8.88621C4.6209 7.77876 5.16463 6.7615 5.96307 5.96307C6.7615 5.16463 7.77876 4.6209 8.88621 4.40061C9.99367 4.18032 11.1416 4.29338 12.1848 4.72549C13.228 5.1576 14.1196 5.88935 14.7469 6.8282C15.3743 7.76706 15.7091 8.87085 15.7091 10H18Z" fill="currentColor"/>
</svg>
